<mxfile host="app.diagrams.net" modified="2020-10-05T13:01:28.783Z" agent="5.0 (X11)" etag="AZKbLblkZewHXIb29DWu" version="13.7.7" type="github">
  <diagram id="9NpFJGLWH6ZSChsD0-8V" name="Page-1">
    <mxGraphModel dx="760" dy="420" grid="1" gridSize="10" guides="1" tooltips="1" connect="1" arrows="1" fold="1" page="0" pageScale="1" pageWidth="850" pageHeight="1100" background="#283618" math="0" shadow="0">
      <root>
        <mxCell id="0" />
        <mxCell id="1" parent="0" />
        <mxCell id="uak6YHH6Baw2Oy7Iajnl-18" value="Runner" style="shape=umlFrame;whiteSpace=wrap;html=1;strokeColor=#DDA15E;fillColor=#BC6C25;fontColor=#FEFAE0;width=80;height=30;sketch=1;rounded=1;" parent="1" vertex="1">
          <mxGeometry x="1220" y="200" width="340" height="430" as="geometry" />
        </mxCell>
        <mxCell id="uak6YHH6Baw2Oy7Iajnl-44" value="IRunner" style="swimlane;fontStyle=1;align=center;verticalAlign=top;childLayout=stackLayout;horizontal=1;startSize=26;horizontalStack=0;resizeParent=1;resizeParentMax=0;resizeLast=0;collapsible=1;marginBottom=0;fillColor=#BC6C25;strokeColor=#DDA15E;fontColor=#FEFAE0;sketch=1;rounded=1;" parent="1" vertex="1">
          <mxGeometry x="1300" y="260" width="190" height="112" as="geometry" />
        </mxCell>
        <mxCell id="uak6YHH6Baw2Oy7Iajnl-46" value="" style="line;strokeWidth=1;fillColor=none;align=left;verticalAlign=middle;spacingTop=-1;spacingLeft=3;spacingRight=3;rotatable=0;labelPosition=right;points=[];portConstraint=eastwest;strokeColor=#DDA15E;fontColor=#FEFAE0;labelBackgroundColor=#283618;sketch=1;rounded=1;" parent="uak6YHH6Baw2Oy7Iajnl-44" vertex="1">
          <mxGeometry y="26" width="190" height="8" as="geometry" />
        </mxCell>
        <mxCell id="uak6YHH6Baw2Oy7Iajnl-48" value="+ get_water(): void" style="text;strokeColor=none;fillColor=none;align=left;verticalAlign=top;spacingLeft=4;spacingRight=4;overflow=hidden;rotatable=0;points=[[0,0.5],[1,0.5]];portConstraint=eastwest;fontColor=#FEFAE0;sketch=1;rounded=1;" parent="uak6YHH6Baw2Oy7Iajnl-44" vertex="1">
          <mxGeometry y="34" width="190" height="26" as="geometry" />
        </mxCell>
        <mxCell id="uak6YHH6Baw2Oy7Iajnl-49" value="+ get_energy(): void" style="text;strokeColor=none;fillColor=none;align=left;verticalAlign=top;spacingLeft=4;spacingRight=4;overflow=hidden;rotatable=0;points=[[0,0.5],[1,0.5]];portConstraint=eastwest;fontColor=#FEFAE0;sketch=1;rounded=1;" parent="uak6YHH6Baw2Oy7Iajnl-44" vertex="1">
          <mxGeometry y="60" width="190" height="26" as="geometry" />
        </mxCell>
        <mxCell id="uak6YHH6Baw2Oy7Iajnl-50" value="+ boil_water(): void" style="text;strokeColor=none;fillColor=none;align=left;verticalAlign=top;spacingLeft=4;spacingRight=4;overflow=hidden;rotatable=0;points=[[0,0.5],[1,0.5]];portConstraint=eastwest;fontColor=#FEFAE0;sketch=1;rounded=1;" parent="uak6YHH6Baw2Oy7Iajnl-44" vertex="1">
          <mxGeometry y="86" width="190" height="26" as="geometry" />
        </mxCell>
        <mxCell id="uak6YHH6Baw2Oy7Iajnl-56" style="edgeStyle=orthogonalEdgeStyle;orthogonalLoop=1;jettySize=auto;html=1;entryX=0.5;entryY=1;entryDx=0;entryDy=0;strokeColor=#DDA15E;fillColor=#BC6C25;fontColor=#FEFAE0;dashed=1;endArrow=block;endFill=0;labelBackgroundColor=#283618;sketch=1;" parent="1" source="uak6YHH6Baw2Oy7Iajnl-51" target="uak6YHH6Baw2Oy7Iajnl-44" edge="1">
          <mxGeometry relative="1" as="geometry" />
        </mxCell>
        <mxCell id="uak6YHH6Baw2Oy7Iajnl-14" value="Kettle" style="shape=umlFrame;whiteSpace=wrap;html=1;strokeColor=#DDA15E;fillColor=#BC6C25;fontColor=#FEFAE0;width=80;height=30;sketch=1;rounded=1;" parent="1" vertex="1">
          <mxGeometry x="70" y="200" width="1130" height="430" as="geometry" />
        </mxCell>
        <mxCell id="nO9a0tfCNYz1xlJ2xIru-1" value="IBoiler" style="swimlane;fontStyle=1;align=center;verticalAlign=top;childLayout=stackLayout;horizontal=1;startSize=26;horizontalStack=0;resizeParent=1;resizeParentMax=0;resizeLast=0;collapsible=1;marginBottom=0;fillColor=#BC6C25;strokeColor=#DDA15E;fontColor=#FEFAE0;sketch=1;rounded=1;" parent="1" vertex="1">
          <mxGeometry x="90" y="270" width="210.00000000000003" height="112" as="geometry" />
        </mxCell>
        <mxCell id="nO9a0tfCNYz1xlJ2xIru-3" value="" style="line;strokeWidth=1;fillColor=none;align=left;verticalAlign=middle;spacingTop=-1;spacingLeft=3;spacingRight=3;rotatable=0;labelPosition=right;points=[];portConstraint=eastwest;strokeColor=#DDA15E;fontColor=#FEFAE0;labelBackgroundColor=#283618;sketch=1;rounded=1;" parent="nO9a0tfCNYz1xlJ2xIru-1" vertex="1">
          <mxGeometry y="26" width="210.00000000000003" height="8" as="geometry" />
        </mxCell>
        <mxCell id="nO9a0tfCNYz1xlJ2xIru-44" value="+ plug(): void" style="text;strokeColor=none;fillColor=none;align=left;verticalAlign=top;spacingLeft=4;spacingRight=4;overflow=hidden;rotatable=0;points=[[0,0.5],[1,0.5]];portConstraint=eastwest;fontColor=#FEFAE0;sketch=1;rounded=1;" parent="nO9a0tfCNYz1xlJ2xIru-1" vertex="1">
          <mxGeometry y="34" width="210.00000000000003" height="26" as="geometry" />
        </mxCell>
        <mxCell id="nO9a0tfCNYz1xlJ2xIru-27" value="+ put_into(Utensil utensil): void" style="text;strokeColor=none;fillColor=none;align=left;verticalAlign=top;spacingLeft=4;spacingRight=4;overflow=hidden;rotatable=0;points=[[0,0.5],[1,0.5]];portConstraint=eastwest;fontColor=#FEFAE0;sketch=1;rounded=1;" parent="nO9a0tfCNYz1xlJ2xIru-1" vertex="1">
          <mxGeometry y="60" width="210.00000000000003" height="26" as="geometry" />
        </mxCell>
        <mxCell id="nO9a0tfCNYz1xlJ2xIru-4" value="+ unplug(): void" style="text;strokeColor=none;fillColor=none;align=left;verticalAlign=top;spacingLeft=4;spacingRight=4;overflow=hidden;rotatable=0;points=[[0,0.5],[1,0.5]];portConstraint=eastwest;fontColor=#FEFAE0;sketch=1;rounded=1;" parent="nO9a0tfCNYz1xlJ2xIru-1" vertex="1">
          <mxGeometry y="86" width="210.00000000000003" height="26" as="geometry" />
        </mxCell>
        <mxCell id="nO9a0tfCNYz1xlJ2xIru-6" value="Boiler" style="swimlane;fontStyle=1;align=center;verticalAlign=top;childLayout=stackLayout;horizontal=1;startSize=26;horizontalStack=0;resizeParent=1;resizeParentMax=0;resizeLast=0;collapsible=1;marginBottom=0;fillColor=#BC6C25;strokeColor=#DDA15E;fontColor=#FEFAE0;sketch=1;rounded=1;" parent="1" vertex="1">
          <mxGeometry x="90" y="430" width="210.00000000000003" height="138" as="geometry" />
        </mxCell>
        <mxCell id="nO9a0tfCNYz1xlJ2xIru-11" value="+ name: string" style="text;strokeColor=none;fillColor=none;align=left;verticalAlign=top;spacingLeft=4;spacingRight=4;overflow=hidden;rotatable=0;points=[[0,0.5],[1,0.5]];portConstraint=eastwest;fontColor=#FEFAE0;sketch=1;rounded=1;" parent="nO9a0tfCNYz1xlJ2xIru-6" vertex="1">
          <mxGeometry y="26" width="210.00000000000003" height="26" as="geometry" />
        </mxCell>
        <mxCell id="nO9a0tfCNYz1xlJ2xIru-8" value="" style="line;strokeWidth=1;fillColor=none;align=left;verticalAlign=middle;spacingTop=-1;spacingLeft=3;spacingRight=3;rotatable=0;labelPosition=right;points=[];portConstraint=eastwest;strokeColor=#DDA15E;fontColor=#FEFAE0;labelBackgroundColor=#283618;sketch=1;rounded=1;" parent="nO9a0tfCNYz1xlJ2xIru-6" vertex="1">
          <mxGeometry y="52" width="210.00000000000003" height="8" as="geometry" />
        </mxCell>
        <mxCell id="nO9a0tfCNYz1xlJ2xIru-31" value="+ plug(): void" style="text;strokeColor=none;fillColor=none;align=left;verticalAlign=top;spacingLeft=4;spacingRight=4;overflow=hidden;rotatable=0;points=[[0,0.5],[1,0.5]];portConstraint=eastwest;fontColor=#FEFAE0;sketch=1;rounded=1;" parent="nO9a0tfCNYz1xlJ2xIru-6" vertex="1">
          <mxGeometry y="60" width="210.00000000000003" height="26" as="geometry" />
        </mxCell>
        <mxCell id="nO9a0tfCNYz1xlJ2xIru-45" value="+ put_into(Utensil utensil): void" style="text;strokeColor=none;fillColor=none;align=left;verticalAlign=top;spacingLeft=4;spacingRight=4;overflow=hidden;rotatable=0;points=[[0,0.5],[1,0.5]];portConstraint=eastwest;fontColor=#FEFAE0;sketch=1;rounded=1;" parent="nO9a0tfCNYz1xlJ2xIru-6" vertex="1">
          <mxGeometry y="86" width="210.00000000000003" height="26" as="geometry" />
        </mxCell>
        <mxCell id="nO9a0tfCNYz1xlJ2xIru-30" value="+ unplug(): void" style="text;strokeColor=none;fillColor=none;align=left;verticalAlign=top;spacingLeft=4;spacingRight=4;overflow=hidden;rotatable=0;points=[[0,0.5],[1,0.5]];portConstraint=eastwest;fontColor=#FEFAE0;sketch=1;rounded=1;" parent="nO9a0tfCNYz1xlJ2xIru-6" vertex="1">
          <mxGeometry y="112" width="210.00000000000003" height="26" as="geometry" />
        </mxCell>
        <mxCell id="nO9a0tfCNYz1xlJ2xIru-10" style="edgeStyle=orthogonalEdgeStyle;orthogonalLoop=1;jettySize=auto;html=1;entryX=0.5;entryY=1;entryDx=0;entryDy=0;entryPerimeter=0;dashed=1;endArrow=block;endFill=0;strokeColor=#DDA15E;fontColor=#FEFAE0;labelBackgroundColor=#283618;sketch=1;" parent="1" source="nO9a0tfCNYz1xlJ2xIru-6" target="nO9a0tfCNYz1xlJ2xIru-4" edge="1">
          <mxGeometry relative="1" as="geometry" />
        </mxCell>
        <mxCell id="nO9a0tfCNYz1xlJ2xIru-33" value="IKettle" style="swimlane;fontStyle=1;align=center;verticalAlign=top;childLayout=stackLayout;horizontal=1;startSize=26;horizontalStack=0;resizeParent=1;resizeParentMax=0;resizeLast=0;collapsible=1;marginBottom=0;fillColor=#BC6C25;strokeColor=#DDA15E;fontColor=#FEFAE0;sketch=1;rounded=1;" parent="1" vertex="1">
          <mxGeometry x="520" y="240" width="310" height="112" as="geometry" />
        </mxCell>
        <mxCell id="nO9a0tfCNYz1xlJ2xIru-35" value="" style="line;strokeWidth=1;fillColor=none;align=left;verticalAlign=middle;spacingTop=-1;spacingLeft=3;spacingRight=3;rotatable=0;labelPosition=right;points=[];portConstraint=eastwest;strokeColor=#DDA15E;fontColor=#FEFAE0;labelBackgroundColor=#283618;sketch=1;rounded=1;" parent="nO9a0tfCNYz1xlJ2xIru-33" vertex="1">
          <mxGeometry y="26" width="310" height="8" as="geometry" />
        </mxCell>
        <mxCell id="nO9a0tfCNYz1xlJ2xIru-37" value="+ fill(ILiquid liquid, CapacityUnit capacity): void" style="text;strokeColor=none;fillColor=none;align=left;verticalAlign=top;spacingLeft=4;spacingRight=4;overflow=hidden;rotatable=0;points=[[0,0.5],[1,0.5]];portConstraint=eastwest;fontColor=#FEFAE0;sketch=1;rounded=1;" parent="nO9a0tfCNYz1xlJ2xIru-33" vertex="1">
          <mxGeometry y="34" width="310" height="26" as="geometry" />
        </mxCell>
        <mxCell id="nO9a0tfCNYz1xlJ2xIru-36" value="+ boil(): void" style="text;strokeColor=none;fillColor=none;align=left;verticalAlign=top;spacingLeft=4;spacingRight=4;overflow=hidden;rotatable=0;points=[[0,0.5],[1,0.5]];portConstraint=eastwest;fontColor=#FEFAE0;sketch=1;rounded=1;" parent="nO9a0tfCNYz1xlJ2xIru-33" vertex="1">
          <mxGeometry y="60" width="310" height="26" as="geometry" />
        </mxCell>
        <mxCell id="nO9a0tfCNYz1xlJ2xIru-59" value="+ pour_out(): void" style="text;strokeColor=none;fillColor=none;align=left;verticalAlign=top;spacingLeft=4;spacingRight=4;overflow=hidden;rotatable=0;points=[[0,0.5],[1,0.5]];portConstraint=eastwest;fontColor=#FEFAE0;sketch=1;rounded=1;" parent="nO9a0tfCNYz1xlJ2xIru-33" vertex="1">
          <mxGeometry y="86" width="310" height="26" as="geometry" />
        </mxCell>
        <mxCell id="nO9a0tfCNYz1xlJ2xIru-38" value="IElectricKettle" style="swimlane;fontStyle=1;align=center;verticalAlign=top;childLayout=stackLayout;horizontal=1;startSize=26;horizontalStack=0;resizeParent=1;resizeParentMax=0;resizeLast=0;collapsible=1;marginBottom=0;fillColor=#BC6C25;strokeColor=#DDA15E;fontColor=#FEFAE0;sketch=1;rounded=1;" parent="1" vertex="1">
          <mxGeometry x="870" y="240" width="310" height="138" as="geometry" />
        </mxCell>
        <mxCell id="nO9a0tfCNYz1xlJ2xIru-39" value="" style="line;strokeWidth=1;fillColor=none;align=left;verticalAlign=middle;spacingTop=-1;spacingLeft=3;spacingRight=3;rotatable=0;labelPosition=right;points=[];portConstraint=eastwest;strokeColor=#DDA15E;fontColor=#FEFAE0;labelBackgroundColor=#283618;sketch=1;rounded=1;" parent="nO9a0tfCNYz1xlJ2xIru-38" vertex="1">
          <mxGeometry y="26" width="310" height="8" as="geometry" />
        </mxCell>
        <mxCell id="nO9a0tfCNYz1xlJ2xIru-40" value="+ turn_on(IEnergy energy): void" style="text;strokeColor=none;fillColor=none;align=left;verticalAlign=top;spacingLeft=4;spacingRight=4;overflow=hidden;rotatable=0;points=[[0,0.5],[1,0.5]];portConstraint=eastwest;fontColor=#FEFAE0;sketch=1;rounded=1;" parent="nO9a0tfCNYz1xlJ2xIru-38" vertex="1">
          <mxGeometry y="34" width="310" height="26" as="geometry" />
        </mxCell>
        <mxCell id="6wJm27l6_s-8LDFN8suA-17" value="+ fill(ILiquid liquid, CapacityUnit capacity): void" style="text;strokeColor=none;fillColor=none;align=left;verticalAlign=top;spacingLeft=4;spacingRight=4;overflow=hidden;rotatable=0;points=[[0,0.5],[1,0.5]];portConstraint=eastwest;fontColor=#FEFAE0;sketch=1;rounded=1;" vertex="1" parent="nO9a0tfCNYz1xlJ2xIru-38">
          <mxGeometry y="60" width="310" height="26" as="geometry" />
        </mxCell>
        <mxCell id="nO9a0tfCNYz1xlJ2xIru-41" value="+ boil(): void" style="text;strokeColor=none;fillColor=none;align=left;verticalAlign=top;spacingLeft=4;spacingRight=4;overflow=hidden;rotatable=0;points=[[0,0.5],[1,0.5]];portConstraint=eastwest;fontColor=#FEFAE0;sketch=1;rounded=1;" parent="nO9a0tfCNYz1xlJ2xIru-38" vertex="1">
          <mxGeometry y="86" width="310" height="26" as="geometry" />
        </mxCell>
        <mxCell id="nO9a0tfCNYz1xlJ2xIru-42" value="+ pour_out(): void" style="text;strokeColor=none;fillColor=none;align=left;verticalAlign=top;spacingLeft=4;spacingRight=4;overflow=hidden;rotatable=0;points=[[0,0.5],[1,0.5]];portConstraint=eastwest;fontColor=#FEFAE0;sketch=1;rounded=1;" parent="nO9a0tfCNYz1xlJ2xIru-38" vertex="1">
          <mxGeometry y="112" width="310" height="26" as="geometry" />
        </mxCell>
        <mxCell id="nO9a0tfCNYz1xlJ2xIru-78" style="edgeStyle=orthogonalEdgeStyle;orthogonalLoop=1;jettySize=auto;html=1;exitX=0;exitY=0;exitDx=0;exitDy=0;entryX=0.5;entryY=0;entryDx=0;entryDy=0;strokeColor=#DDA15E;fillColor=#BC6C25;fontColor=#FEFAE0;endArrow=block;endFill=0;dashed=1;labelBackgroundColor=#283618;sketch=1;" parent="1" source="nO9a0tfCNYz1xlJ2xIru-38" target="nO9a0tfCNYz1xlJ2xIru-33" edge="1">
          <mxGeometry relative="1" as="geometry" />
        </mxCell>
        <mxCell id="6wJm27l6_s-8LDFN8suA-18" style="edgeStyle=orthogonalEdgeStyle;rounded=1;sketch=1;orthogonalLoop=1;jettySize=auto;html=1;exitX=0;exitY=0;exitDx=0;exitDy=0;entryX=1;entryY=0;entryDx=0;entryDy=0;endArrow=block;endFill=0;strokeColor=#DDA15E;fillColor=#BC6C25;fontColor=#FEFAE0;" edge="1" parent="1" source="nO9a0tfCNYz1xlJ2xIru-63" target="nO9a0tfCNYz1xlJ2xIru-50">
          <mxGeometry relative="1" as="geometry" />
        </mxCell>
        <mxCell id="nO9a0tfCNYz1xlJ2xIru-63" value="ElectricKettle" style="swimlane;fontStyle=1;align=center;verticalAlign=top;childLayout=stackLayout;horizontal=1;startSize=26;horizontalStack=0;resizeParent=1;resizeParentMax=0;resizeLast=0;collapsible=1;marginBottom=0;fillColor=#BC6C25;strokeColor=#DDA15E;fontColor=#FEFAE0;sketch=1;rounded=1;" parent="1" vertex="1">
          <mxGeometry x="870" y="420" width="310" height="190" as="geometry" />
        </mxCell>
        <mxCell id="nO9a0tfCNYz1xlJ2xIru-69" value="+ utensil: Utensil" style="text;strokeColor=none;fillColor=none;align=left;verticalAlign=top;spacingLeft=4;spacingRight=4;overflow=hidden;rotatable=0;points=[[0,0.5],[1,0.5]];portConstraint=eastwest;fontColor=#FEFAE0;sketch=1;rounded=1;" parent="nO9a0tfCNYz1xlJ2xIru-63" vertex="1">
          <mxGeometry y="26" width="310" height="26" as="geometry" />
        </mxCell>
        <mxCell id="nO9a0tfCNYz1xlJ2xIru-70" value="+ boiler: Boiler" style="text;strokeColor=none;fillColor=none;align=left;verticalAlign=top;spacingLeft=4;spacingRight=4;overflow=hidden;rotatable=0;points=[[0,0.5],[1,0.5]];portConstraint=eastwest;fontColor=#FEFAE0;sketch=1;rounded=1;" parent="nO9a0tfCNYz1xlJ2xIru-63" vertex="1">
          <mxGeometry y="52" width="310" height="26" as="geometry" />
        </mxCell>
        <mxCell id="nO9a0tfCNYz1xlJ2xIru-64" value="" style="line;strokeWidth=1;fillColor=none;align=left;verticalAlign=middle;spacingTop=-1;spacingLeft=3;spacingRight=3;rotatable=0;labelPosition=right;points=[];portConstraint=eastwest;strokeColor=#DDA15E;fontColor=#FEFAE0;labelBackgroundColor=#283618;sketch=1;rounded=1;" parent="nO9a0tfCNYz1xlJ2xIru-63" vertex="1">
          <mxGeometry y="78" width="310" height="8" as="geometry" />
        </mxCell>
        <mxCell id="nO9a0tfCNYz1xlJ2xIru-65" value="+ turn_on(IEnergy energy): void" style="text;strokeColor=none;fillColor=none;align=left;verticalAlign=top;spacingLeft=4;spacingRight=4;overflow=hidden;rotatable=0;points=[[0,0.5],[1,0.5]];portConstraint=eastwest;fontColor=#FEFAE0;sketch=1;rounded=1;" parent="nO9a0tfCNYz1xlJ2xIru-63" vertex="1">
          <mxGeometry y="86" width="310" height="26" as="geometry" />
        </mxCell>
        <mxCell id="6wJm27l6_s-8LDFN8suA-16" value="+ fill(ILiquid liquid, CapacityUnit capacity): void" style="text;strokeColor=none;fillColor=none;align=left;verticalAlign=top;spacingLeft=4;spacingRight=4;overflow=hidden;rotatable=0;points=[[0,0.5],[1,0.5]];portConstraint=eastwest;fontColor=#FEFAE0;sketch=1;rounded=1;" vertex="1" parent="nO9a0tfCNYz1xlJ2xIru-63">
          <mxGeometry y="112" width="310" height="26" as="geometry" />
        </mxCell>
        <mxCell id="nO9a0tfCNYz1xlJ2xIru-66" value="+ boil(): void" style="text;strokeColor=none;fillColor=none;align=left;verticalAlign=top;spacingLeft=4;spacingRight=4;overflow=hidden;rotatable=0;points=[[0,0.5],[1,0.5]];portConstraint=eastwest;fontColor=#FEFAE0;sketch=1;rounded=1;" parent="nO9a0tfCNYz1xlJ2xIru-63" vertex="1">
          <mxGeometry y="138" width="310" height="26" as="geometry" />
        </mxCell>
        <mxCell id="nO9a0tfCNYz1xlJ2xIru-67" value="+ pour_out(): void" style="text;strokeColor=none;fillColor=none;align=left;verticalAlign=top;spacingLeft=4;spacingRight=4;overflow=hidden;rotatable=0;points=[[0,0.5],[1,0.5]];portConstraint=eastwest;fontColor=#FEFAE0;sketch=1;rounded=1;" parent="nO9a0tfCNYz1xlJ2xIru-63" vertex="1">
          <mxGeometry y="164" width="310" height="26" as="geometry" />
        </mxCell>
        <mxCell id="nO9a0tfCNYz1xlJ2xIru-79" style="edgeStyle=orthogonalEdgeStyle;orthogonalLoop=1;jettySize=auto;html=1;entryX=0.5;entryY=1;entryDx=0;entryDy=0;dashed=1;endArrow=block;endFill=0;strokeColor=#DDA15E;fillColor=#BC6C25;fontColor=#FEFAE0;labelBackgroundColor=#283618;sketch=1;" parent="1" source="nO9a0tfCNYz1xlJ2xIru-63" target="nO9a0tfCNYz1xlJ2xIru-38" edge="1">
          <mxGeometry relative="1" as="geometry" />
        </mxCell>
        <mxCell id="nO9a0tfCNYz1xlJ2xIru-50" value="Kettle" style="swimlane;fontStyle=1;align=center;verticalAlign=top;childLayout=stackLayout;horizontal=1;startSize=26;horizontalStack=0;resizeParent=1;resizeParentMax=0;resizeLast=0;collapsible=1;marginBottom=0;fillColor=#BC6C25;strokeColor=#DDA15E;fontColor=#FEFAE0;sketch=1;rounded=1;" parent="1" vertex="1">
          <mxGeometry x="520" y="414" width="310" height="190" as="geometry" />
        </mxCell>
        <mxCell id="nO9a0tfCNYz1xlJ2xIru-62" value="+ utensil: Utensil" style="text;strokeColor=none;fillColor=none;align=left;verticalAlign=top;spacingLeft=4;spacingRight=4;overflow=hidden;rotatable=0;points=[[0,0.5],[1,0.5]];portConstraint=eastwest;fontColor=#FEFAE0;sketch=1;rounded=1;" parent="nO9a0tfCNYz1xlJ2xIru-50" vertex="1">
          <mxGeometry y="26" width="310" height="26" as="geometry" />
        </mxCell>
        <mxCell id="nO9a0tfCNYz1xlJ2xIru-61" value="+ boiler: Boiler" style="text;strokeColor=none;fillColor=none;align=left;verticalAlign=top;spacingLeft=4;spacingRight=4;overflow=hidden;rotatable=0;points=[[0,0.5],[1,0.5]];portConstraint=eastwest;fontColor=#FEFAE0;sketch=1;rounded=1;" parent="nO9a0tfCNYz1xlJ2xIru-50" vertex="1">
          <mxGeometry y="52" width="310" height="26" as="geometry" />
        </mxCell>
        <mxCell id="nO9a0tfCNYz1xlJ2xIru-51" value="+ works_on: IEnergy" style="text;strokeColor=none;fillColor=none;align=left;verticalAlign=top;spacingLeft=4;spacingRight=4;overflow=hidden;rotatable=0;points=[[0,0.5],[1,0.5]];portConstraint=eastwest;fontColor=#FEFAE0;sketch=1;rounded=1;" parent="nO9a0tfCNYz1xlJ2xIru-50" vertex="1">
          <mxGeometry y="78" width="310" height="26" as="geometry" />
        </mxCell>
        <mxCell id="nO9a0tfCNYz1xlJ2xIru-52" value="" style="line;strokeWidth=1;fillColor=none;align=left;verticalAlign=middle;spacingTop=-1;spacingLeft=3;spacingRight=3;rotatable=0;labelPosition=right;points=[];portConstraint=eastwest;strokeColor=#DDA15E;fontColor=#FEFAE0;labelBackgroundColor=#283618;sketch=1;rounded=1;" parent="nO9a0tfCNYz1xlJ2xIru-50" vertex="1">
          <mxGeometry y="104" width="310" height="8" as="geometry" />
        </mxCell>
        <mxCell id="6wJm27l6_s-8LDFN8suA-15" value="+ fill(ILiquid liquid, CapacityUnit capacity): void" style="text;strokeColor=none;fillColor=none;align=left;verticalAlign=top;spacingLeft=4;spacingRight=4;overflow=hidden;rotatable=0;points=[[0,0.5],[1,0.5]];portConstraint=eastwest;fontColor=#FEFAE0;sketch=1;rounded=1;" vertex="1" parent="nO9a0tfCNYz1xlJ2xIru-50">
          <mxGeometry y="112" width="310" height="26" as="geometry" />
        </mxCell>
        <mxCell id="nO9a0tfCNYz1xlJ2xIru-60" value="+ boil(): void" style="text;strokeColor=none;fillColor=none;align=left;verticalAlign=top;spacingLeft=4;spacingRight=4;overflow=hidden;rotatable=0;points=[[0,0.5],[1,0.5]];portConstraint=eastwest;fontColor=#FEFAE0;sketch=1;rounded=1;" parent="nO9a0tfCNYz1xlJ2xIru-50" vertex="1">
          <mxGeometry y="138" width="310" height="26" as="geometry" />
        </mxCell>
        <mxCell id="nO9a0tfCNYz1xlJ2xIru-55" value="+ pour_out(): void" style="text;strokeColor=none;fillColor=none;align=left;verticalAlign=top;spacingLeft=4;spacingRight=4;overflow=hidden;rotatable=0;points=[[0,0.5],[1,0.5]];portConstraint=eastwest;fontColor=#FEFAE0;sketch=1;rounded=1;" parent="nO9a0tfCNYz1xlJ2xIru-50" vertex="1">
          <mxGeometry y="164" width="310" height="26" as="geometry" />
        </mxCell>
        <mxCell id="nO9a0tfCNYz1xlJ2xIru-58" style="edgeStyle=orthogonalEdgeStyle;orthogonalLoop=1;jettySize=auto;html=1;entryX=0.5;entryY=1;entryDx=0;entryDy=0;endArrow=block;endFill=0;dashed=1;strokeColor=#DDA15E;fontColor=#FEFAE0;labelBackgroundColor=#283618;sketch=1;" parent="1" source="nO9a0tfCNYz1xlJ2xIru-50" target="nO9a0tfCNYz1xlJ2xIru-33" edge="1">
          <mxGeometry relative="1" as="geometry" />
        </mxCell>
        <mxCell id="uak6YHH6Baw2Oy7Iajnl-8" style="edgeStyle=orthogonalEdgeStyle;orthogonalLoop=1;jettySize=auto;html=1;exitX=0.5;exitY=1;exitDx=0;exitDy=0;entryX=0.5;entryY=0;entryDx=0;entryDy=0;strokeColor=#DDA15E;fillColor=#BC6C25;fontColor=#FEFAE0;dashed=1;endArrow=open;endFill=0;labelBackgroundColor=#283618;sketch=1;" parent="1" source="nO9a0tfCNYz1xlJ2xIru-18" target="nO9a0tfCNYz1xlJ2xIru-14" edge="1">
          <mxGeometry relative="1" as="geometry" />
        </mxCell>
        <mxCell id="uak6YHH6Baw2Oy7Iajnl-12" value="Suppliers" style="shape=umlFrame;whiteSpace=wrap;html=1;strokeColor=#DDA15E;fillColor=#BC6C25;fontColor=#FEFAE0;width=70;height=30;sketch=1;rounded=1;" parent="1" vertex="1">
          <mxGeometry x="71" y="640" width="1012" height="294.17" as="geometry" />
        </mxCell>
        <mxCell id="hHnyY89mBTedC-fLoXgH-87" value="&lt;h1&gt;Energy Supplement&lt;br&gt;&lt;/h1&gt;" style="text;html=1;strokeColor=none;fillColor=none;spacing=5;spacingTop=-20;whiteSpace=wrap;overflow=hidden;fontColor=#FEFAE0;sketch=1;rounded=1;" parent="1" vertex="1">
          <mxGeometry x="200" y="656.6666666666666" width="310" height="47.91666666666667" as="geometry" />
        </mxCell>
        <mxCell id="hHnyY89mBTedC-fLoXgH-68" value="&lt;h1&gt;Liquid Supplement&lt;br&gt;&lt;/h1&gt;" style="text;html=1;strokeColor=none;fillColor=none;spacing=5;spacingTop=-20;whiteSpace=wrap;overflow=hidden;fontColor=#FEFAE0;sketch=1;rounded=1;" parent="1" vertex="1">
          <mxGeometry x="730" y="656.6666666666666" width="309" height="38.333333333333336" as="geometry" />
        </mxCell>
        <mxCell id="hHnyY89mBTedC-fLoXgH-69" value="IEnergy" style="swimlane;fontStyle=1;align=center;verticalAlign=top;childLayout=stackLayout;horizontal=1;startSize=26;horizontalStack=0;resizeParent=1;resizeParentMax=0;resizeLast=0;collapsible=1;marginBottom=0;fillColor=#BC6C25;strokeColor=#DDA15E;fontColor=#FEFAE0;sketch=1;rounded=1;" parent="1" vertex="1">
          <mxGeometry x="80" y="723.75" width="270" height="58.58333333333334" as="geometry" />
        </mxCell>
        <mxCell id="hHnyY89mBTedC-fLoXgH-70" value="" style="line;strokeWidth=1;fillColor=none;align=left;verticalAlign=middle;spacingTop=-1;spacingLeft=3;spacingRight=3;rotatable=0;labelPosition=right;points=[];portConstraint=eastwest;strokeColor=#DDA15E;fontColor=#FEFAE0;labelBackgroundColor=#283618;sketch=1;rounded=1;" parent="hHnyY89mBTedC-fLoXgH-69" vertex="1">
          <mxGeometry y="26" width="270" height="7.666666666666668" as="geometry" />
        </mxCell>
        <mxCell id="hHnyY89mBTedC-fLoXgH-71" value="+ is_compatible_with(IKettle kettle): bool" style="text;strokeColor=none;fillColor=none;align=left;verticalAlign=top;spacingLeft=4;spacingRight=4;overflow=hidden;rotatable=0;points=[[0,0.5],[1,0.5]];portConstraint=eastwest;fontColor=#FEFAE0;sketch=1;rounded=1;" parent="hHnyY89mBTedC-fLoXgH-69" vertex="1">
          <mxGeometry y="33.66666666666667" width="270" height="24.916666666666668" as="geometry" />
        </mxCell>
        <mxCell id="hHnyY89mBTedC-fLoXgH-73" value="IEnergyProvider" style="swimlane;fontStyle=1;align=center;verticalAlign=top;childLayout=stackLayout;horizontal=1;startSize=26;horizontalStack=0;resizeParent=1;resizeParentMax=0;resizeLast=0;collapsible=1;marginBottom=0;fillColor=#BC6C25;strokeColor=#DDA15E;fontColor=#FEFAE0;sketch=1;rounded=1;" parent="1" vertex="1">
          <mxGeometry x="380" y="723.75" width="260" height="58.58333333333334" as="geometry" />
        </mxCell>
        <mxCell id="hHnyY89mBTedC-fLoXgH-74" value="" style="line;strokeWidth=1;fillColor=none;align=left;verticalAlign=middle;spacingTop=-1;spacingLeft=3;spacingRight=3;rotatable=0;labelPosition=right;points=[];portConstraint=eastwest;strokeColor=#DDA15E;fontColor=#FEFAE0;labelBackgroundColor=#283618;sketch=1;rounded=1;" parent="hHnyY89mBTedC-fLoXgH-73" vertex="1">
          <mxGeometry y="26" width="260" height="7.666666666666668" as="geometry" />
        </mxCell>
        <mxCell id="hHnyY89mBTedC-fLoXgH-75" value="+ get_energy_for(IKettle kettle): IEnergy" style="text;strokeColor=none;fillColor=none;align=left;verticalAlign=top;spacingLeft=4;spacingRight=4;overflow=hidden;rotatable=0;points=[[0,0.5],[1,0.5]];portConstraint=eastwest;fontColor=#FEFAE0;sketch=1;rounded=1;" parent="hHnyY89mBTedC-fLoXgH-73" vertex="1">
          <mxGeometry y="33.66666666666667" width="260" height="24.916666666666668" as="geometry" />
        </mxCell>
        <mxCell id="hHnyY89mBTedC-fLoXgH-72" style="edgeStyle=orthogonalEdgeStyle;orthogonalLoop=1;jettySize=auto;html=1;entryX=1;entryY=0.25;entryDx=0;entryDy=0;startArrow=block;startFill=0;endArrow=none;endFill=0;strokeColor=#DDA15E;fontColor=#FEFAE0;labelBackgroundColor=#283618;sketch=1;" parent="1" source="hHnyY89mBTedC-fLoXgH-75" target="hHnyY89mBTedC-fLoXgH-69" edge="1">
          <mxGeometry relative="1" as="geometry" />
        </mxCell>
        <mxCell id="nO9a0tfCNYz1xlJ2xIru-18" value="CapacityUnit" style="swimlane;fontStyle=1;align=center;verticalAlign=top;childLayout=stackLayout;horizontal=1;startSize=26;horizontalStack=0;resizeParent=1;resizeParentMax=0;resizeLast=0;collapsible=1;marginBottom=0;fillColor=#BC6C25;strokeColor=#DDA15E;fontColor=#FEFAE0;sketch=1;rounded=1;" parent="1" vertex="1">
          <mxGeometry x="325" y="270" width="160" height="60" as="geometry" />
        </mxCell>
        <mxCell id="nO9a0tfCNYz1xlJ2xIru-22" value="+ value: int" style="text;strokeColor=none;fillColor=none;align=left;verticalAlign=top;spacingLeft=4;spacingRight=4;overflow=hidden;rotatable=0;points=[[0,0.5],[1,0.5]];portConstraint=eastwest;fontColor=#FEFAE0;sketch=1;rounded=1;" parent="nO9a0tfCNYz1xlJ2xIru-18" vertex="1">
          <mxGeometry y="26" width="160" height="26" as="geometry" />
        </mxCell>
        <mxCell id="nO9a0tfCNYz1xlJ2xIru-20" value="" style="line;strokeWidth=1;fillColor=none;align=left;verticalAlign=middle;spacingTop=-1;spacingLeft=3;spacingRight=3;rotatable=0;labelPosition=right;points=[];portConstraint=eastwest;strokeColor=#DDA15E;fontColor=#FEFAE0;labelBackgroundColor=#283618;sketch=1;rounded=1;" parent="nO9a0tfCNYz1xlJ2xIru-18" vertex="1">
          <mxGeometry y="52" width="160" height="8" as="geometry" />
        </mxCell>
        <mxCell id="hHnyY89mBTedC-fLoXgH-77" value="Energy" style="swimlane;fontStyle=1;align=center;verticalAlign=top;childLayout=stackLayout;horizontal=1;startSize=26;horizontalStack=0;resizeParent=1;resizeParentMax=0;resizeLast=0;collapsible=1;marginBottom=0;fillColor=#BC6C25;strokeColor=#DDA15E;fontColor=#FEFAE0;sketch=1;rounded=1;" parent="1" vertex="1">
          <mxGeometry x="80" y="819.5833333333333" width="270" height="83.50000000000001" as="geometry" />
        </mxCell>
        <mxCell id="hHnyY89mBTedC-fLoXgH-78" value="+ name: string" style="text;strokeColor=none;fillColor=none;align=left;verticalAlign=top;spacingLeft=4;spacingRight=4;overflow=hidden;rotatable=0;points=[[0,0.5],[1,0.5]];portConstraint=eastwest;fontColor=#FEFAE0;sketch=1;rounded=1;" parent="hHnyY89mBTedC-fLoXgH-77" vertex="1">
          <mxGeometry y="26" width="270" height="24.916666666666668" as="geometry" />
        </mxCell>
        <mxCell id="hHnyY89mBTedC-fLoXgH-79" value="" style="line;strokeWidth=1;fillColor=none;align=left;verticalAlign=middle;spacingTop=-1;spacingLeft=3;spacingRight=3;rotatable=0;labelPosition=right;points=[];portConstraint=eastwest;strokeColor=#DDA15E;fontColor=#FEFAE0;labelBackgroundColor=#283618;sketch=1;rounded=1;" parent="hHnyY89mBTedC-fLoXgH-77" vertex="1">
          <mxGeometry y="50.91666666666667" width="270" height="7.666666666666668" as="geometry" />
        </mxCell>
        <mxCell id="hHnyY89mBTedC-fLoXgH-88" value="+ is_compatible_with(IKettle kettle): bool" style="text;strokeColor=none;fillColor=none;align=left;verticalAlign=top;spacingLeft=4;spacingRight=4;overflow=hidden;rotatable=0;points=[[0,0.5],[1,0.5]];portConstraint=eastwest;fontColor=#FEFAE0;sketch=1;rounded=1;" parent="hHnyY89mBTedC-fLoXgH-77" vertex="1">
          <mxGeometry y="58.58333333333334" width="270" height="24.916666666666668" as="geometry" />
        </mxCell>
        <mxCell id="hHnyY89mBTedC-fLoXgH-109" style="edgeStyle=orthogonalEdgeStyle;orthogonalLoop=1;jettySize=auto;html=1;dashed=1;startArrow=none;startFill=0;endArrow=block;endFill=0;strokeColor=#DDA15E;fontColor=#FEFAE0;labelBackgroundColor=#283618;sketch=1;" parent="1" source="hHnyY89mBTedC-fLoXgH-77" target="hHnyY89mBTedC-fLoXgH-69" edge="1">
          <mxGeometry relative="1" as="geometry" />
        </mxCell>
        <mxCell id="hHnyY89mBTedC-fLoXgH-82" value="EnergyProvider" style="swimlane;fontStyle=1;align=center;verticalAlign=top;childLayout=stackLayout;horizontal=1;startSize=26;horizontalStack=0;resizeParent=1;resizeParentMax=0;resizeLast=0;collapsible=1;marginBottom=0;fillColor=#BC6C25;strokeColor=#DDA15E;fontColor=#FEFAE0;sketch=1;rounded=1;" parent="1" vertex="1">
          <mxGeometry x="380" y="819.58" width="260" height="83.50000000000001" as="geometry" />
        </mxCell>
        <mxCell id="hHnyY89mBTedC-fLoXgH-83" value="+ available_energy_types: IEnergy[]" style="text;strokeColor=none;fillColor=none;align=left;verticalAlign=top;spacingLeft=4;spacingRight=4;overflow=hidden;rotatable=0;points=[[0,0.5],[1,0.5]];portConstraint=eastwest;fontColor=#FEFAE0;sketch=1;rounded=1;" parent="hHnyY89mBTedC-fLoXgH-82" vertex="1">
          <mxGeometry y="26" width="260" height="24.916666666666668" as="geometry" />
        </mxCell>
        <mxCell id="hHnyY89mBTedC-fLoXgH-84" value="" style="line;strokeWidth=1;fillColor=none;align=left;verticalAlign=middle;spacingTop=-1;spacingLeft=3;spacingRight=3;rotatable=0;labelPosition=right;points=[];portConstraint=eastwest;strokeColor=#DDA15E;fontColor=#FEFAE0;labelBackgroundColor=#283618;sketch=1;rounded=1;" parent="hHnyY89mBTedC-fLoXgH-82" vertex="1">
          <mxGeometry y="50.91666666666667" width="260" height="7.666666666666668" as="geometry" />
        </mxCell>
        <mxCell id="hHnyY89mBTedC-fLoXgH-85" value="+ get_energy_for(IKettle kettle): IEnergy" style="text;strokeColor=none;fillColor=none;align=left;verticalAlign=top;spacingLeft=4;spacingRight=4;overflow=hidden;rotatable=0;points=[[0,0.5],[1,0.5]];portConstraint=eastwest;fontColor=#FEFAE0;sketch=1;rounded=1;" parent="hHnyY89mBTedC-fLoXgH-82" vertex="1">
          <mxGeometry y="58.58333333333334" width="260" height="24.916666666666668" as="geometry" />
        </mxCell>
        <mxCell id="hHnyY89mBTedC-fLoXgH-108" style="edgeStyle=orthogonalEdgeStyle;orthogonalLoop=1;jettySize=auto;html=1;dashed=1;startArrow=none;startFill=0;endArrow=block;endFill=0;strokeColor=#DDA15E;fontColor=#FEFAE0;labelBackgroundColor=#283618;sketch=1;" parent="1" source="hHnyY89mBTedC-fLoXgH-82" target="hHnyY89mBTedC-fLoXgH-73" edge="1">
          <mxGeometry relative="1" as="geometry" />
        </mxCell>
        <mxCell id="hHnyY89mBTedC-fLoXgH-50" value="ILiquid" style="swimlane;fontStyle=1;align=center;verticalAlign=top;childLayout=stackLayout;horizontal=1;startSize=26;horizontalStack=0;resizeParent=1;resizeParentMax=0;resizeLast=0;collapsible=1;marginBottom=0;fillColor=#BC6C25;strokeColor=#DDA15E;fontColor=#FEFAE0;sketch=1;rounded=1;" parent="1" vertex="1">
          <mxGeometry x="680" y="723.75" width="160" height="58.58333333333334" as="geometry" />
        </mxCell>
        <mxCell id="hHnyY89mBTedC-fLoXgH-52" value="" style="line;strokeWidth=1;fillColor=none;align=left;verticalAlign=middle;spacingTop=-1;spacingLeft=3;spacingRight=3;rotatable=0;labelPosition=right;points=[];portConstraint=eastwest;strokeColor=#DDA15E;fontColor=#FEFAE0;labelBackgroundColor=#283618;sketch=1;rounded=1;" parent="hHnyY89mBTedC-fLoXgH-50" vertex="1">
          <mxGeometry y="26" width="160" height="7.666666666666668" as="geometry" />
        </mxCell>
        <mxCell id="hHnyY89mBTedC-fLoXgH-53" value="+ is_boilable(): bool" style="text;strokeColor=none;fillColor=none;align=left;verticalAlign=top;spacingLeft=4;spacingRight=4;overflow=hidden;rotatable=0;points=[[0,0.5],[1,0.5]];portConstraint=eastwest;fontColor=#FEFAE0;sketch=1;rounded=1;" parent="hHnyY89mBTedC-fLoXgH-50" vertex="1">
          <mxGeometry y="33.66666666666667" width="160" height="24.916666666666668" as="geometry" />
        </mxCell>
        <mxCell id="hHnyY89mBTedC-fLoXgH-46" value="ILiquidProvider" style="swimlane;fontStyle=1;align=center;verticalAlign=top;childLayout=stackLayout;horizontal=1;startSize=26;horizontalStack=0;resizeParent=1;resizeParentMax=0;resizeLast=0;collapsible=1;marginBottom=0;fillColor=#BC6C25;strokeColor=#DDA15E;fontColor=#FEFAE0;sketch=1;rounded=1;" parent="1" vertex="1">
          <mxGeometry x="870" y="723.75" width="200" height="58.58333333333334" as="geometry" />
        </mxCell>
        <mxCell id="hHnyY89mBTedC-fLoXgH-48" value="" style="line;strokeWidth=1;fillColor=none;align=left;verticalAlign=middle;spacingTop=-1;spacingLeft=3;spacingRight=3;rotatable=0;labelPosition=right;points=[];portConstraint=eastwest;strokeColor=#DDA15E;fontColor=#FEFAE0;labelBackgroundColor=#283618;sketch=1;rounded=1;" parent="hHnyY89mBTedC-fLoXgH-46" vertex="1">
          <mxGeometry y="26" width="200" height="7.666666666666668" as="geometry" />
        </mxCell>
        <mxCell id="6wJm27l6_s-8LDFN8suA-10" value="+ get_liquid(): ILiquid" style="text;strokeColor=none;fillColor=none;align=left;verticalAlign=top;spacingLeft=4;spacingRight=4;overflow=hidden;rotatable=0;points=[[0,0.5],[1,0.5]];portConstraint=eastwest;fontColor=#FEFAE0;sketch=1;rounded=1;" vertex="1" parent="hHnyY89mBTedC-fLoXgH-46">
          <mxGeometry y="33.66666666666667" width="200" height="24.916666666666668" as="geometry" />
        </mxCell>
        <mxCell id="hHnyY89mBTedC-fLoXgH-55" value="Liquid" style="swimlane;fontStyle=1;align=center;verticalAlign=top;childLayout=stackLayout;horizontal=1;startSize=26;horizontalStack=0;resizeParent=1;resizeParentMax=0;resizeLast=0;collapsible=1;marginBottom=0;fillColor=#BC6C25;strokeColor=#DDA15E;fontColor=#FEFAE0;sketch=1;rounded=1;" parent="1" vertex="1">
          <mxGeometry x="680" y="819.5833333333333" width="160" height="83.50000000000001" as="geometry" />
        </mxCell>
        <mxCell id="hHnyY89mBTedC-fLoXgH-56" value="+ name: string" style="text;strokeColor=none;fillColor=none;align=left;verticalAlign=top;spacingLeft=4;spacingRight=4;overflow=hidden;rotatable=0;points=[[0,0.5],[1,0.5]];portConstraint=eastwest;fontColor=#FEFAE0;sketch=1;rounded=1;" parent="hHnyY89mBTedC-fLoXgH-55" vertex="1">
          <mxGeometry y="26" width="160" height="24.916666666666668" as="geometry" />
        </mxCell>
        <mxCell id="hHnyY89mBTedC-fLoXgH-57" value="" style="line;strokeWidth=1;fillColor=none;align=left;verticalAlign=middle;spacingTop=-1;spacingLeft=3;spacingRight=3;rotatable=0;labelPosition=right;points=[];portConstraint=eastwest;strokeColor=#DDA15E;fontColor=#FEFAE0;labelBackgroundColor=#283618;sketch=1;rounded=1;" parent="hHnyY89mBTedC-fLoXgH-55" vertex="1">
          <mxGeometry y="50.91666666666667" width="160" height="7.666666666666668" as="geometry" />
        </mxCell>
        <mxCell id="hHnyY89mBTedC-fLoXgH-59" value="+ is_boilable(): bool" style="text;strokeColor=none;fillColor=none;align=left;verticalAlign=top;spacingLeft=4;spacingRight=4;overflow=hidden;rotatable=0;points=[[0,0.5],[1,0.5]];portConstraint=eastwest;fontColor=#FEFAE0;sketch=1;rounded=1;" parent="hHnyY89mBTedC-fLoXgH-55" vertex="1">
          <mxGeometry y="58.58333333333334" width="160" height="24.916666666666668" as="geometry" />
        </mxCell>
        <mxCell id="hHnyY89mBTedC-fLoXgH-60" style="edgeStyle=orthogonalEdgeStyle;orthogonalLoop=1;jettySize=auto;html=1;startArrow=block;startFill=0;endArrow=none;endFill=0;dashed=1;strokeColor=#DDA15E;fontColor=#FEFAE0;labelBackgroundColor=#283618;sketch=1;" parent="1" source="hHnyY89mBTedC-fLoXgH-50" target="hHnyY89mBTedC-fLoXgH-55" edge="1">
          <mxGeometry relative="1" as="geometry" />
        </mxCell>
        <mxCell id="hHnyY89mBTedC-fLoXgH-61" value="LiquidProvider" style="swimlane;fontStyle=1;align=center;verticalAlign=top;childLayout=stackLayout;horizontal=1;startSize=26;horizontalStack=0;resizeParent=1;resizeParentMax=0;resizeLast=0;collapsible=1;marginBottom=0;fillColor=#BC6C25;strokeColor=#DDA15E;fontColor=#FEFAE0;sketch=1;rounded=1;" parent="1" vertex="1">
          <mxGeometry x="870" y="819.58" width="200" height="83.50000000000001" as="geometry" />
        </mxCell>
        <mxCell id="hHnyY89mBTedC-fLoXgH-62" value="+ available_liquids: ILiquid[]" style="text;strokeColor=none;fillColor=none;align=left;verticalAlign=top;spacingLeft=4;spacingRight=4;overflow=hidden;rotatable=0;points=[[0,0.5],[1,0.5]];portConstraint=eastwest;fontColor=#FEFAE0;sketch=1;rounded=1;" parent="hHnyY89mBTedC-fLoXgH-61" vertex="1">
          <mxGeometry y="26" width="200" height="24.916666666666668" as="geometry" />
        </mxCell>
        <mxCell id="hHnyY89mBTedC-fLoXgH-63" value="" style="line;strokeWidth=1;fillColor=none;align=left;verticalAlign=middle;spacingTop=-1;spacingLeft=3;spacingRight=3;rotatable=0;labelPosition=right;points=[];portConstraint=eastwest;strokeColor=#DDA15E;fontColor=#FEFAE0;labelBackgroundColor=#283618;sketch=1;rounded=1;" parent="hHnyY89mBTedC-fLoXgH-61" vertex="1">
          <mxGeometry y="50.91666666666667" width="200" height="7.666666666666668" as="geometry" />
        </mxCell>
        <mxCell id="hHnyY89mBTedC-fLoXgH-65" value="+ get_liquid(): ILiquid" style="text;strokeColor=none;fillColor=none;align=left;verticalAlign=top;spacingLeft=4;spacingRight=4;overflow=hidden;rotatable=0;points=[[0,0.5],[1,0.5]];portConstraint=eastwest;fontColor=#FEFAE0;sketch=1;rounded=1;" parent="hHnyY89mBTedC-fLoXgH-61" vertex="1">
          <mxGeometry y="58.58333333333334" width="200" height="24.916666666666668" as="geometry" />
        </mxCell>
        <mxCell id="hHnyY89mBTedC-fLoXgH-105" style="edgeStyle=orthogonalEdgeStyle;orthogonalLoop=1;jettySize=auto;html=1;startArrow=none;startFill=0;endArrow=block;endFill=0;dashed=1;strokeColor=#DDA15E;fontColor=#FEFAE0;labelBackgroundColor=#283618;sketch=1;" parent="1" source="hHnyY89mBTedC-fLoXgH-61" target="hHnyY89mBTedC-fLoXgH-46" edge="1">
          <mxGeometry relative="1" as="geometry" />
        </mxCell>
        <mxCell id="nO9a0tfCNYz1xlJ2xIru-14" value="Utensil" style="swimlane;fontStyle=1;align=center;verticalAlign=top;childLayout=stackLayout;horizontal=1;startSize=26;horizontalStack=0;resizeParent=1;resizeParentMax=0;resizeLast=0;collapsible=1;marginBottom=0;fillColor=#BC6C25;strokeColor=#DDA15E;fontColor=#FEFAE0;sketch=1;rounded=1;" parent="1" vertex="1">
          <mxGeometry x="320" y="456" width="170" height="86" as="geometry" />
        </mxCell>
        <mxCell id="nO9a0tfCNYz1xlJ2xIru-15" value="+ name: string" style="text;strokeColor=none;fillColor=none;align=left;verticalAlign=top;spacingLeft=4;spacingRight=4;overflow=hidden;rotatable=0;points=[[0,0.5],[1,0.5]];portConstraint=eastwest;fontColor=#FEFAE0;sketch=1;rounded=1;" parent="nO9a0tfCNYz1xlJ2xIru-14" vertex="1">
          <mxGeometry y="26" width="170" height="26" as="geometry" />
        </mxCell>
        <mxCell id="nO9a0tfCNYz1xlJ2xIru-26" value="+ capacity: CapacityUnit" style="text;strokeColor=none;fillColor=none;align=left;verticalAlign=top;spacingLeft=4;spacingRight=4;overflow=hidden;rotatable=0;points=[[0,0.5],[1,0.5]];portConstraint=eastwest;fontColor=#FEFAE0;sketch=1;rounded=1;" parent="nO9a0tfCNYz1xlJ2xIru-14" vertex="1">
          <mxGeometry y="52" width="170" height="26" as="geometry" />
        </mxCell>
        <mxCell id="nO9a0tfCNYz1xlJ2xIru-16" value="" style="line;strokeWidth=1;fillColor=none;align=left;verticalAlign=middle;spacingTop=-1;spacingLeft=3;spacingRight=3;rotatable=0;labelPosition=right;points=[];portConstraint=eastwest;strokeColor=#DDA15E;fontColor=#FEFAE0;labelBackgroundColor=#283618;sketch=1;rounded=1;" parent="nO9a0tfCNYz1xlJ2xIru-14" vertex="1">
          <mxGeometry y="78" width="170" height="8" as="geometry" />
        </mxCell>
        <mxCell id="uak6YHH6Baw2Oy7Iajnl-51" value="Runner" style="swimlane;fontStyle=1;align=center;verticalAlign=top;childLayout=stackLayout;horizontal=1;startSize=26;horizontalStack=0;resizeParent=1;resizeParentMax=0;resizeLast=0;collapsible=1;marginBottom=0;fillColor=#BC6C25;strokeColor=#DDA15E;fontColor=#FEFAE0;sketch=1;rounded=1;" parent="1" vertex="1">
          <mxGeometry x="1270" y="420" width="240" height="190" as="geometry" />
        </mxCell>
        <mxCell id="uak6YHH6Baw2Oy7Iajnl-52" value="+ liquid_provider: ILiquidProvider" style="text;strokeColor=none;fillColor=none;align=left;verticalAlign=top;spacingLeft=4;spacingRight=4;overflow=hidden;rotatable=0;points=[[0,0.5],[1,0.5]];portConstraint=eastwest;fontColor=#FEFAE0;sketch=1;rounded=1;" parent="uak6YHH6Baw2Oy7Iajnl-51" vertex="1">
          <mxGeometry y="26" width="240" height="26" as="geometry" />
        </mxCell>
        <mxCell id="uak6YHH6Baw2Oy7Iajnl-55" value="+ energy_provider: ILiquidProvider" style="text;strokeColor=none;fillColor=none;align=left;verticalAlign=top;spacingLeft=4;spacingRight=4;overflow=hidden;rotatable=0;points=[[0,0.5],[1,0.5]];portConstraint=eastwest;fontColor=#FEFAE0;sketch=1;rounded=1;" parent="uak6YHH6Baw2Oy7Iajnl-51" vertex="1">
          <mxGeometry y="52" width="240" height="26" as="geometry" />
        </mxCell>
        <mxCell id="uak6YHH6Baw2Oy7Iajnl-60" value="+ f@@ing_kettle: IKettle" style="text;strokeColor=none;fillColor=none;align=left;verticalAlign=top;spacingLeft=4;spacingRight=4;overflow=hidden;rotatable=0;points=[[0,0.5],[1,0.5]];portConstraint=eastwest;fontColor=#FEFAE0;sketch=1;rounded=1;" parent="uak6YHH6Baw2Oy7Iajnl-51" vertex="1">
          <mxGeometry y="78" width="240" height="26" as="geometry" />
        </mxCell>
        <mxCell id="uak6YHH6Baw2Oy7Iajnl-53" value="" style="line;strokeWidth=1;fillColor=none;align=left;verticalAlign=middle;spacingTop=-1;spacingLeft=3;spacingRight=3;rotatable=0;labelPosition=right;points=[];portConstraint=eastwest;strokeColor=#DDA15E;fontColor=#FEFAE0;labelBackgroundColor=#283618;sketch=1;rounded=1;" parent="uak6YHH6Baw2Oy7Iajnl-51" vertex="1">
          <mxGeometry y="104" width="240" height="8" as="geometry" />
        </mxCell>
        <mxCell id="uak6YHH6Baw2Oy7Iajnl-57" value="+ get_water(): void" style="text;strokeColor=none;fillColor=none;align=left;verticalAlign=top;spacingLeft=4;spacingRight=4;overflow=hidden;rotatable=0;points=[[0,0.5],[1,0.5]];portConstraint=eastwest;fontColor=#FEFAE0;sketch=1;rounded=1;" parent="uak6YHH6Baw2Oy7Iajnl-51" vertex="1">
          <mxGeometry y="112" width="240" height="26" as="geometry" />
        </mxCell>
        <mxCell id="uak6YHH6Baw2Oy7Iajnl-58" value="+ get_energy(): void" style="text;strokeColor=none;fillColor=none;align=left;verticalAlign=top;spacingLeft=4;spacingRight=4;overflow=hidden;rotatable=0;points=[[0,0.5],[1,0.5]];portConstraint=eastwest;fontColor=#FEFAE0;sketch=1;rounded=1;" parent="uak6YHH6Baw2Oy7Iajnl-51" vertex="1">
          <mxGeometry y="138" width="240" height="26" as="geometry" />
        </mxCell>
        <mxCell id="uak6YHH6Baw2Oy7Iajnl-59" value="+ boil_water(): void" style="text;strokeColor=none;fillColor=none;align=left;verticalAlign=top;spacingLeft=4;spacingRight=4;overflow=hidden;rotatable=0;points=[[0,0.5],[1,0.5]];portConstraint=eastwest;fontColor=#FEFAE0;sketch=1;rounded=1;" parent="uak6YHH6Baw2Oy7Iajnl-51" vertex="1">
          <mxGeometry y="164" width="240" height="26" as="geometry" />
        </mxCell>
      </root>
    </mxGraphModel>
  </diagram>
</mxfile>
